<svg xmlns="http://www.w3.org/2000/svg" version="1.1" xmlns:xlink="http://www.w3.org/1999/xlink" width="1000" height="1000"><metadata><rdf:RDF xmlns:rdf="http://www.w3.org/1999/02/22-rdf-syntax-ns#" xmlns:dc="http://purl.org/dc/elements/1.1/"><rdf:Description><dc:creator>RealFaviconGenerator</dc:creator><dc:source>https://realfavicongenerator.net</dc:source></rdf:Description></rdf:RDF></metadata><g clip-path="url(#SvgjsClipPath1097)"><rect width="1000" height="1000" fill="#000000"></rect><g transform="matrix(13.72549019607843,0,0,13.72549019607843,184.31372549019608,150)"><svg xmlns="http://www.w3.org/2000/svg" width="46" height="51" viewBox="0 0 46 51" fill="none"><path d="M35.4 30.5L42.4 23.5C42.4 18.7 41.2 14.1 39 10.1L22.7 25.2V50.3H25.8C36.7 50.3 45.6 41.5 45.6 30.5H35.4Z" fill="white"></path><path d="M10.2 19.8L3.2 26.8C3.2 31.6 4.4 36.2 6.6 40.2L22.9 25.1V0H19.8C8.9 0 0 8.8 0 19.8H10.2Z" fill="white"></path></svg></g></g><defs><clipPath id="SvgjsClipPath1097"><rect width="1000" height="1000" x="0" y="0" rx="350" ry="350"></rect></clipPath></defs></svg>